<svg width="166" height="166" viewBox="0 0 166 166" fill="none" xmlns="http://www.w3.org/2000/svg">
<path d="M31.0987 24.2322H22.5918V32.5092H31.0987V24.2322Z" fill="#313131"/>
<path d="M143.745 24.2322H135.238V32.5092H143.745V24.2322Z" fill="#313131"/>
<path d="M31.0987 78.863H22.5918V87.14H31.0987V78.863Z" fill="#313131"/>
<path d="M31.0987 106.344H22.5918V114.621H31.0987V106.344Z" fill="#313131"/>
<path d="M59.0069 24.2322H50.5V32.5092H59.0069V24.2322Z" fill="#313131"/>
<path d="M59.0069 78.863H50.5V87.14H59.0069V78.863Z" fill="#313131"/>
<path d="M59.0069 106.344H50.5V114.621H59.0069V106.344Z" fill="#313131"/>
<path d="M87.253 24.2322H78.7461V32.5092H87.253V24.2322Z" fill="#313131"/>
<path d="M87.253 78.863H78.7461V87.14H87.253V78.863Z" fill="#313131"/>
<path d="M87.253 106.344H78.7461V114.621H87.253V106.344Z" fill="#313131"/>
<path d="M115.499 24.2322H106.992V32.5092H115.499V24.2322Z" fill="#313131"/>
<path d="M31.0987 133.818H22.5918V142.095H31.0987V133.818Z" fill="#313131"/>
<path d="M143.745 133.818H135.238V142.095H143.745V133.818Z" fill="#313131"/>
<path d="M59.0069 133.818H50.5V142.095H59.0069V133.818Z" fill="#313131"/>
<path d="M87.253 133.818H78.7461V142.095H87.253V133.818Z" fill="#313131"/>
<path d="M115.499 133.818H106.992V142.095H115.499V133.818Z" fill="#313131"/>
<path d="M115.499 78.863H106.992V87.14H115.499V78.863Z" fill="#313131"/>
<path d="M115.499 106.344H106.992V114.621H115.499V106.344Z" fill="#313131"/>
<path d="M31.0987 51.3821H22.5918V59.6591H31.0987V51.3821Z" fill="#313131"/>
<path d="M143.745 78.863H135.238V87.14H143.745V78.863Z" fill="#313131"/>
<path d="M143.745 106.344H135.238V114.621H143.745V106.344Z" fill="#313131"/>
<path d="M143.745 51.3821H135.238V59.6591H143.745V51.3821Z" fill="#313131"/>
<path d="M59.0069 51.3821H50.5V59.6591H59.0069V51.3821Z" fill="#313131"/>
<path d="M87.253 51.3821H78.7461V59.6591H87.253V51.3821Z" fill="#313131"/>
<path d="M115.499 51.3821H106.992V59.6591H115.499V51.3821Z" fill="#313131"/>
</svg>
