<svg width="145" height="53" viewBox="0 0 145 53" fill="none" xmlns="http://www.w3.org/2000/svg">
<rect x="0.40678" y="0.40678" width="143.729" height="51.7288" rx="24" fill="white"/>
<rect x="0.40678" y="0.40678" width="143.729" height="51.7288" rx="24" stroke="black" stroke-width="0.813559"/>
<path d="M26.6883 19.4358V21.7089H20.0838V25.1275L26.3661 25.1096V27.3469H20.0838V30.9981H26.6883V33.2712H17.1485V19.4358H26.6883ZM34.1757 25.5928C34.1757 24.7874 33.6745 24.3936 32.7438 24.3936C31.7415 24.3936 30.775 25.0022 30.7392 25.8613V33.2712H27.9828V22.568H30.6139L30.6676 23.5524C31.473 22.8186 32.7259 22.3174 33.943 22.3174C35.8939 22.3174 36.932 23.1766 36.932 25.1633V33.2712H34.1757V25.5928ZM42.8548 33.5039C39.9374 33.5039 38.0581 31.2666 38.0581 27.7764C38.0581 24.4473 39.8837 22.3174 42.6579 22.3174C43.9287 22.3174 45.0921 22.8544 45.9333 23.7672C45.9154 23.3555 45.9154 22.9618 45.9154 22.568H48.6539C48.636 23.4629 48.636 24.3399 48.636 25.2349V37.0477H45.8617V32.3763C45.0742 33.1101 44.0182 33.5039 42.8548 33.5039ZM40.886 27.848C40.886 29.9958 41.9957 31.5172 43.4991 31.5172C44.931 31.5172 46.0586 30.0316 46.0586 27.848C46.0586 25.7539 44.931 24.3041 43.4991 24.3041C41.9957 24.3041 40.886 25.7539 40.886 27.848ZM53.1874 33.5039C51.1112 33.5039 50.1268 32.6627 50.1268 30.7117V22.568H52.9011V30.3717C52.9011 31.1055 53.3485 31.4456 54.2255 31.4456C55.1562 31.4456 55.9975 30.8907 56.1407 30.139V22.568H58.9149V30.8191V33.2712H56.2659C56.2659 32.949 56.248 32.6269 56.248 32.2868C55.4605 33.0027 54.2971 33.5039 53.1874 33.5039ZM60.4406 33.2712V22.568H63.2148V33.2712H60.4406ZM60.4048 21.2793V18.7736H63.2327V21.2793H60.4048ZM64.7408 33.2712V22.568H67.3897L67.3718 23.5166C67.9625 22.8007 68.929 22.389 70.0029 22.389C70.2714 22.389 70.4861 22.4248 70.6472 22.4427L70.6293 24.6979C70.343 24.6621 69.9134 24.6263 69.4838 24.6263C68.3205 24.6263 67.4971 25.1991 67.4971 26.094V33.2712H64.7408ZM76.4888 33.5218C73.1597 33.5218 70.7613 31.2129 70.7613 27.9912C70.7613 24.7874 73.2134 22.2995 76.3277 22.2995C79.7463 22.2995 82.1089 24.9664 81.6972 28.4566L73.5535 28.4744C73.7503 30.3001 74.9495 31.553 76.4709 31.553C77.5627 31.553 78.4755 30.8728 78.8156 29.8168L81.6435 29.8347C81.1245 32.0183 78.9946 33.5218 76.4888 33.5218ZM73.6788 26.7204L78.923 26.7383C78.6366 25.2528 77.6343 24.2683 76.3277 24.2683C75.039 24.2683 74.0367 25.2349 73.6788 26.7204ZM87.204 33.2712V19.7222L87.1861 19.6864H87.204V19.4358H90.193L96.0279 28.2597L95.9921 19.4358H98.7305V33.2712H96.1353L89.9066 23.8209L89.9424 33.2712H87.204ZM105.535 33.5397C102.42 33.5397 100.022 31.0518 100.022 27.7943C100.022 24.6621 102.42 22.2995 105.535 22.2995C108.649 22.2816 111.065 24.6621 111.047 27.7943C111.03 31.0518 108.595 33.5397 105.535 33.5397ZM102.796 27.7943C102.796 29.96 103.96 31.4635 105.553 31.4635C107.11 31.4635 108.255 29.96 108.255 27.7943C108.255 25.7718 107.11 24.3757 105.553 24.3757C103.96 24.3757 102.796 25.7718 102.796 27.7943ZM114.693 33.2712L111.31 22.568H114.263L116.161 29.8347L118.326 22.568H120.689L123.016 29.7452L124.77 22.568H127.401L124.304 33.2712H121.888L119.382 26.0761L117.181 33.2712H114.693Z" fill="black"/>
</svg>
