<svg width="177" height="64" viewBox="0 0 177 64" fill="none" xmlns="http://www.w3.org/2000/svg">
<rect x="0.5" y="0.5" width="176" height="63" rx="29.5" fill="black"/>
<rect x="0.5" y="0.5" width="176" height="63" rx="29.5" stroke="black"/>
<path d="M32.804 23.994V26.788H24.686V30.99L32.408 30.968V33.718H24.686V38.206H32.804V41H21.078V23.994H32.804ZM42.0072 31.562C42.0072 30.572 41.3912 30.088 40.2472 30.088C39.0152 30.088 37.8272 30.836 37.7832 31.892V41H34.3952V27.844H37.6292L37.6952 29.054C38.6852 28.152 40.2252 27.536 41.7212 27.536C44.1192 27.536 45.3952 28.592 45.3952 31.034V41H42.0072V31.562ZM52.6753 41.286C49.0893 41.286 46.7793 38.536 46.7793 34.246C46.7793 30.154 49.0233 27.536 52.4333 27.536C53.9953 27.536 55.4253 28.196 56.4593 29.318C56.4373 28.812 56.4373 28.328 56.4373 27.844H59.8033C59.7813 28.944 59.7813 30.022 59.7813 31.122V45.642H56.3713V39.9C55.4033 40.802 54.1053 41.286 52.6753 41.286ZM50.2553 34.334C50.2553 36.974 51.6193 38.844 53.4673 38.844C55.2273 38.844 56.6133 37.018 56.6133 34.334C56.6133 31.76 55.2273 29.978 53.4673 29.978C51.6193 29.978 50.2553 31.76 50.2553 34.334ZM65.3759 41.286C62.8239 41.286 61.6139 40.252 61.6139 37.854V27.844H65.0239V37.436C65.0239 38.338 65.5739 38.756 66.6519 38.756C67.7959 38.756 68.8299 38.074 69.0059 37.15V27.844H72.4159V37.986V41H69.1599C69.1599 40.604 69.1379 40.208 69.1379 39.79C68.1699 40.67 66.7399 41.286 65.3759 41.286ZM74.2912 41V27.844H77.7012V41H74.2912ZM74.2472 26.26V23.18H77.7232V26.26H74.2472ZM79.5769 41V27.844H82.8329L82.8109 29.01C83.5369 28.13 84.7249 27.624 86.0449 27.624C86.3749 27.624 86.6389 27.668 86.8369 27.69L86.8149 30.462C86.4629 30.418 85.9349 30.374 85.4069 30.374C83.9769 30.374 82.9649 31.078 82.9649 32.178V41H79.5769ZM94.0171 41.308C89.9251 41.308 86.9771 38.47 86.9771 34.51C86.9771 30.572 89.9911 27.514 93.8191 27.514C98.0211 27.514 100.925 30.792 100.419 35.082L90.4091 35.104C90.6511 37.348 92.1251 38.888 93.9951 38.888C95.3371 38.888 96.4591 38.052 96.8771 36.754L100.353 36.776C99.7151 39.46 97.0971 41.308 94.0171 41.308ZM90.5631 32.948L97.0091 32.97C96.6571 31.144 95.4251 29.934 93.8191 29.934C92.2351 29.934 91.0031 31.122 90.5631 32.948ZM107.188 41V24.346L107.166 24.302H107.188V23.994H110.862L118.034 34.84L117.99 23.994H121.356V41H118.166L110.51 29.384L110.554 41H107.188ZM129.72 41.33C125.892 41.33 122.944 38.272 122.944 34.268C122.944 30.418 125.892 27.514 129.72 27.514C133.547 27.492 136.518 30.418 136.496 34.268C136.474 38.272 133.482 41.33 129.72 41.33ZM126.354 34.268C126.354 36.93 127.784 38.778 129.742 38.778C131.656 38.778 133.064 36.93 133.064 34.268C133.064 31.782 131.656 30.066 129.742 30.066C127.784 30.066 126.354 31.782 126.354 34.268ZM140.976 41L136.818 27.844H140.448L142.78 36.776L145.442 27.844H148.346L151.206 36.666L153.362 27.844H156.596L152.79 41H149.82L146.74 32.156L144.034 41H140.976Z" fill="white"/>
</svg>
