<svg width="309" height="439" viewBox="0 0 309 439" fill="none" xmlns="http://www.w3.org/2000/svg">
<path d="M238.544 378.65L98.0249 219.672C97.4873 219.063 97.5256 218.129 98.1101 217.531C98.6923 216.94 99.6305 216.883 100.25 217.406L135.793 247.268L121.792 199.254C121.575 198.509 121.944 197.706 122.658 197.366C123.369 197.024 124.228 197.215 124.631 197.897L151.865 239.593L152.122 189.22C152.124 188.442 152.703 187.768 153.477 187.638C154.255 187.512 154.995 187.969 155.208 188.707L169.335 236.686L183.825 188.04C184.049 187.288 184.787 186.797 185.564 186.891C186.332 186.976 186.912 187.627 186.907 188.411L186.788 238.78L214.331 195.803C214.758 195.134 215.6 194.87 216.311 195.176C217.018 195.477 217.385 196.264 217.16 197.025L202.803 245.704L241.181 211.874C241.774 211.35 242.653 211.329 243.242 211.827C243.822 212.366 243.956 213.189 243.529 213.853L216.091 256.903L262.187 234.962C262.901 234.623 263.742 234.865 264.163 235.496C264.584 236.142 264.458 237.013 263.865 237.537L225.576 271.469L275.65 263.198C276.422 263.056 277.164 263.525 277.378 264.265C277.596 265.01 277.229 265.811 276.517 266.158L230.482 288.214L280.485 294.282C281.258 294.375 281.831 295.024 281.829 295.802C281.825 296.582 281.247 297.254 280.475 297.386L230.42 305.795L276.296 325.702C277.001 326.001 277.368 326.792 277.143 327.549C276.921 328.303 276.181 328.796 275.409 328.702L225.387 322.773L263.419 354.916C264.014 355.401 264.13 356.275 263.706 356.942C263.277 357.604 262.434 357.872 261.726 357.569L215.792 337.777L241.066 376.719C241.51 377.401 241.337 378.323 240.676 378.826C240.016 379.337 239.081 379.257 238.544 378.65ZM114.635 233.651L226.708 360.447L210.272 335.122C209.897 334.547 209.955 333.785 210.418 333.247C210.872 332.708 211.621 332.531 212.258 332.801L253.183 350.433L219.296 321.795C218.76 321.348 218.611 320.606 218.903 319.968C219.195 319.33 219.868 318.945 220.558 319.03L265.13 324.312L224.253 306.574C223.616 306.304 223.254 305.63 223.357 304.949C223.458 304.254 224.005 303.697 224.692 303.583L269.288 296.094L224.736 290.69C224.05 290.609 223.497 290.087 223.415 289.392C223.314 288.705 223.683 288.023 224.32 287.719L265.335 268.07L220.719 275.438C220.027 275.549 219.357 275.204 219.068 274.577C218.78 273.95 218.946 273.198 219.477 272.728L253.588 242.497L212.521 262.046C211.881 262.346 211.134 262.197 210.681 261.685C210.226 261.17 210.17 260.411 210.55 259.816L234.996 221.46L200.804 251.601C200.272 252.071 199.505 252.143 198.919 251.78C198.326 251.41 198.072 250.709 198.266 250.036L211.06 206.665L186.522 244.954C186.142 245.548 185.422 245.833 184.754 245.651C184.073 245.473 183.627 244.865 183.624 244.176L183.732 199.298L170.824 242.637C170.627 243.308 170.008 243.782 169.308 243.799C168.613 243.811 167.993 243.373 167.804 242.707L155.219 199.961L154.987 244.845C154.985 245.538 154.523 246.161 153.854 246.373C153.185 246.584 152.46 246.328 152.089 245.758L127.825 208.606L140.297 251.386C140.489 252.054 140.219 252.773 139.633 253.162C139.041 253.556 138.276 253.516 137.752 253.074L114.635 233.651Z" fill="#313131"/>
</svg>
